<svg xmlns="http://www.w3.org/2000/svg" width="115.733" height="24"><g data-name="Landing logo"><path d="M0 3.6A3.6 3.6 0 0 1 3.6 0h16.8A3.6 3.6 0 0 1 24 3.6v16.8a3.6 3.6 0 0 1-3.6 3.6H3.6A3.6 3.6 0 0 1 0 20.4zM12 12c-3.314 0-6-3.224-6-7.2h2.4c0 3.079 2 4.8 3.6 4.8s3.6-1.721 3.6-4.8H18c0 3.976-2.686 7.2-6 7.2z" fill="#212121" fill-rule="evenodd"/><g data-name="main logo gradient"><path data-name="Union 17" d="M32 12c0-4.987 2.817-8 7.26-8 3.688 0 6.494 2.359 6.74 5.82h-3.127a3.563 3.563 0 0 0-3.613-3.139c-2.424 0-3.986 2.047-3.986 5.3 0 3.3 1.541 5.337 4 5.337a3.471 3.471 0 0 0 3.614-2.958h3.125C45.648 17.814 43.022 20 39.26 20 34.795 20 32 16.989 32 12zm56.932 3.331h3.091c.149 1.275 1.466 2.111 3.167 2.111s2.88-.825 2.88-1.961c0-1.007-.733-1.565-2.583-1.983l-2-.439c-2.827-.611-4.22-2.058-4.22-4.32C89.269 5.886 91.714 4 95.137 4c3.571 0 5.814 1.854 5.863 4.651h-3c-.106-1.308-1.244-2.1-2.849-2.1-1.584 0-2.645.761-2.645 1.907 0 .954.744 1.489 2.509 1.9l1.86.4c3.072.664 4.411 1.993 4.411 4.35 0 3-2.413 4.9-6.218 4.9-3.691-.008-6.041-1.777-6.136-4.681zM57.5 19.735l-1.17-3.751h-5.389l-1.169 3.751h-3.3L51.8 4.269h3.774l5.336 15.465zm-5.868-6.173h4.007l-1.966-6.333H53.6zm55.545 6.17v-5.774l-5.336-9.687h3.5l3.433 6.6h.074l3.442-6.6h3.444l-5.346 9.687v5.776zm-27.1 0V6.938h-4.434V4.271h12.084v2.667h-4.444v12.795zm-17.6 0V4.267h6.282c3.525 0 5.541 1.876 5.541 4.933a4.547 4.547 0 0 1-2.781 4.39l3.232 6.14h-3.634l-2.857-5.658h-2.572v5.66zm3.21-8h2.764a2.31 2.31 0 0 0 2.562-2.465A2.36 2.36 0 0 0 68.417 6.8h-2.732z" fill="#212121"/></g></g></svg>