<svg width="40" height="40" viewBox="0 0 40 40" fill="none" xmlns="http://www.w3.org/2000/svg">
<g clip-path="url(#clip0)">
<path d="M23.75 7.5L8.75 7.5C8.06 7.5 7.5 8.06 7.5 8.75C7.5 9.44 8.06 10 8.75 10L23.75 10C24.44 10 25 9.44 25 8.75C25 8.06 24.44 7.5 23.75 7.5Z" fill="black"/>
<path d="M18.75 12.5L8.75 12.5C8.06 12.5 7.5 13.06 7.5 13.75C7.5 14.44 8.06 15 8.75 15L18.75 15C19.44 15 20 14.44 20 13.75C20 13.06 19.44 12.5 18.75 12.5Z" fill="black"/>
<path d="M27.5 1.85585e-08L5 3.37428e-09C2.2425 1.51336e-09 -1.51336e-09 2.2425 -3.37428e-09 5L-2.02457e-08 30C-2.0573e-08 30.485 0.28 30.9275 0.72 31.1325C0.8875 31.21 1.07 31.25 1.25 31.25C1.5375 31.25 1.8225 31.15 2.05 30.96L9.2025 25L27.5 25C30.2575 25 32.5 22.7575 32.5 20L32.5 5C32.5 2.2425 30.2575 2.04194e-08 27.5 1.85585e-08ZM30 20C30 21.3775 28.88 22.5 27.5 22.5L8.75 22.5C8.4575 22.5 8.175 22.6025 7.95 22.79L2.5 27.3325L2.5 5C2.5 3.6225 3.62 2.5 5 2.5L27.5 2.5C28.88 2.5 30 3.6225 30 5L30 20Z" fill="black"/>
<path d="M35 10C34.31 10 33.75 10.56 33.75 11.25C33.75 11.94 34.31 12.5 35 12.5C36.38 12.5 37.5 13.6225 37.5 15L37.5 36.1475L33.28 32.7725C33.06 32.5975 32.7825 32.5 32.5 32.5L15 32.5C13.62 32.5 12.5 31.3775 12.5 30L12.5 28.75C12.5 28.06 11.94 27.5 11.25 27.5C10.56 27.5 10 28.06 10 28.75L10 30C10 32.7575 12.2425 35 15 35L32.06 35L37.9675 39.7275C38.195 39.9075 38.4725 40 38.75 40C38.9325 40 39.1175 39.96 39.2925 39.8775C39.725 39.6675 40 39.23 40 38.75L40 15C40 12.2425 37.7575 10 35 10Z" fill="black"/>
</g>
<defs>
<clipPath id="clip0">
<rect width="40" height="40" fill="white"/>
</clipPath>
</defs>
</svg>
