<svg width="60" height="60" viewBox="0 0 60 60" fill="none" xmlns="http://www.w3.org/2000/svg">
<path d="M59.954 10.4482C59.6987 7.54801 56.1781 6.25672 54.1173 8.31781L51.1737 11.2614C50.5156 11.9196 49.435 11.9304 48.7648 11.2854C48.0695 10.6161 48.1056 9.46309 48.789 8.77965L51.6843 5.88441C53.7431 3.82555 52.4572 0.303593 49.5547 0.048007C41.6658 -0.645626 35.4086 6.69113 37.5007 14.471L1.66431 50.3074C-0.554756 52.5263 -0.555107 56.1182 1.66431 58.3377C3.87833 60.5516 7.48056 60.5517 9.69458 58.3377L45.5217 22.5104C53.2086 24.6005 60.655 18.4089 59.954 10.4482Z" fill="#BDC6CB"/>
<path d="M3.74965 13.7648C3.83368 13.9305 3.94336 14.0819 4.07473 14.2132L9.16161 19.3C9.84809 19.9865 10.961 19.9864 11.6474 19.3L14.2343 16.7131L19.1747 21.6535L13.8929 26.9351C12.5243 28.3062 12.5255 30.5362 13.8941 31.906L14.4484 32.4603L32.4757 14.4341L31.9214 13.8798C30.5456 12.5065 28.3259 12.5045 26.9482 13.8798L21.6605 19.1676L16.7201 14.2272L19.307 11.6403C19.9935 10.9539 19.9935 9.84085 19.307 9.15448L14.2202 4.06761C14.0875 3.93471 13.9342 3.82409 13.7664 3.73983L7.26458 0.473583C6.58723 0.13327 5.76856 0.265341 5.23254 0.801356L0.789966 5.24382C0.252544 5.78124 0.121411 6.60307 0.464887 7.28112L3.74965 13.7648Z" fill="#BDC6CB"/>
<path d="M42.7646 30.2397L30.2519 42.7524L44.6219 57.126C48.0788 60.5829 53.6754 60.5839 57.1334 57.126C60.5833 53.6762 60.5833 48.0631 57.1334 44.6144L42.7646 30.2397ZM53.0614 53.0504C52.3794 53.7348 51.2635 53.7379 50.576 53.0504L40.5991 43.0735C39.9124 42.3868 39.9124 41.2737 40.5991 40.5881C41.2858 39.9014 42.399 39.9014 43.0845 40.5881L53.0614 50.565C53.748 51.2517 53.748 52.3637 53.0614 53.0504Z" fill="#BDC6CB"/>
</svg>
