<svg width="80" height="54" viewBox="0 0 80 54" fill="none" xmlns="http://www.w3.org/2000/svg">
<path d="M71.6667 17C69.7816 17.0266 67.9702 17.7373 66.57 19C65.7887 19.7444 64.7856 20.2125 63.7133 20.3333C63.3633 19.1833 63.4166 15.0533 65.7566 5.66655C66.3291 3.36374 64.9264 1.03265 62.6236 0.460147C62.28 0.374678 61.9273 0.332179 61.5733 0.333273H46.64C45.3209 0.332648 44.1336 1.13327 43.64 2.35655C43.1387 3.6014 43.4464 5.02609 44.4167 5.95327C45.7358 7.0428 46.5492 8.6264 46.6667 10.3333C46.6667 13.09 43.04 13.6666 40 13.6666C36.96 13.6666 33.3333 13.0898 33.3333 10.3333C33.4541 8.62515 34.2711 7.04155 35.5933 5.95327C36.5644 5.02671 36.8722 3.6014 36.37 2.35655C35.8764 1.13327 34.6891 0.332491 33.37 0.333273H18.4267C16.05 0.328585 14.1197 2.25155 14.115 4.62812C14.1144 4.97812 14.1562 5.32671 14.24 5.66655C16.5733 15.0366 16.64 19.1698 16.2867 20.3333C15.2145 20.2125 14.2113 19.7442 13.43 19C12.0298 17.7373 10.2186 17.0266 8.33328 17C3.33328 17 0 23.02 0 27C0 30.98 3.33328 37 8.33328 37C10.2184 36.9734 12.0298 36.2626 13.43 35C14.2113 34.2556 15.2144 33.7875 16.2867 33.6667C16.6367 34.8167 16.5867 38.95 14.24 48.3334C13.6711 50.6411 15.0806 52.9728 17.3883 53.5417C17.7281 53.6255 18.0767 53.6675 18.4267 53.6669H33.3567C34.6758 53.6675 35.8631 52.8669 36.3567 51.6436C36.858 50.3987 36.5503 48.9741 35.58 48.0469C34.2622 46.9567 33.45 45.3731 33.3333 43.6669C33.3333 40.9101 36.96 40.3336 40 40.3336C43.04 40.3336 46.6667 40.9103 46.6667 43.6669C46.5459 45.375 45.7289 46.9586 44.4067 48.0469C43.4356 48.9734 43.1278 50.3987 43.63 51.6436C44.1236 52.8669 45.3109 53.6676 46.63 53.6669H61.56C63.933 53.6744 65.8628 51.7569 65.8703 49.3839C65.8714 49.0298 65.8288 48.6772 65.7434 48.3336C63.4102 38.9603 63.3467 34.8269 63.7002 33.6669C64.7723 33.7876 65.7756 34.2559 66.5569 35.0001C67.9605 36.2659 69.777 36.9769 71.6669 37.0001C76.6669 37.0001 80.0002 30.9801 80.0002 27.0001C80.0002 23.0201 76.6667 17 71.6667 17Z" fill="#BDC6CB"/>
</svg>
