<svg width="160" height="80" viewBox="0 0 160 80" fill="none" xmlns="http://www.w3.org/2000/svg">
<path d="M63.1819 30.1233C62.4234 30.1233 61.7312 30.2243 61.1054 30.4262C60.4986 30.6121 59.9667 30.925 59.5097 31.3649C59.0707 31.7868 58.716 32.3358 58.4458 33.0119C58.1927 33.687 58.049 34.4929 58.0149 35.4297C57.9618 36.9496 57.9618 38.4695 58.0149 39.9894C58.049 40.9347 58.1927 41.7407 58.4458 42.4072C58.716 43.0823 59.0707 43.6398 59.5097 44.0798C59.9648 44.5017 60.4967 44.8146 61.1054 45.0185C61.7312 45.2043 62.4234 45.2972 63.1819 45.2972C63.9272 45.2972 64.6193 45.1963 65.2584 44.9943C65.8974 44.7743 66.4464 44.4548 66.9053 44.0357C67.3794 43.5967 67.7521 43.0392 68.0232 42.3631C68.2935 41.688 68.4286 40.8944 68.4286 39.9823V38.6909H64.0153C63.6437 38.6909 63.4578 38.5013 63.4578 38.122V37.7664C63.4578 37.3872 63.6437 37.1975 64.0153 37.1975H69.4341C69.8134 37.1975 70.003 37.3872 70.003 37.7664V39.9951C70.003 41.0096 69.8513 41.9388 69.5479 42.7827C69.2445 43.6105 68.7969 44.3292 68.2053 44.9388C67.6316 45.5457 66.9129 46.0183 66.0492 46.3568C65.1958 46.6773 64.2334 46.8375 63.162 46.8375C62.064 46.8375 61.1016 46.6773 60.2748 46.3568C59.4471 46.0193 58.7464 45.5547 58.1727 44.963C57.6152 44.3723 57.1848 43.6716 56.8813 42.8609C56.5941 42.0332 56.4338 41.121 56.4006 40.1245C56.3665 39.366 56.3494 38.5638 56.3494 37.7181C56.3494 36.8647 56.3665 36.0626 56.4006 35.3116C56.4348 34.3161 56.6035 33.4125 56.9069 32.6008C57.2104 31.7731 57.6408 31.0639 58.1983 30.4732C58.772 29.8824 59.4727 29.4264 60.3004 29.105C61.1282 28.7674 62.082 28.5986 63.162 28.5986C64.3282 28.5986 65.3248 28.7759 66.1516 29.1306C66.9793 29.4852 67.6549 29.9118 68.1783 30.4106C68.7016 30.9008 69.0904 31.4161 69.3445 31.9566C69.5977 32.497 69.7328 32.9445 69.7498 33.2992C69.7669 33.4509 69.7242 33.5774 69.6218 33.6789C69.5204 33.7642 69.3853 33.8069 69.2165 33.8069H68.659C68.5073 33.8069 68.3973 33.7737 68.329 33.7073C68.2626 33.622 68.1953 33.4869 68.1271 33.302C67.9924 32.9227 67.8028 32.5435 67.5582 32.1642C67.3211 31.7849 67.0016 31.4474 66.5996 31.1516C66.1947 30.8482 65.7135 30.6031 65.156 30.4163C64.5985 30.2304 63.9395 30.1375 63.1791 30.1375L63.1819 30.1233ZM75.1402 35.1623C75.747 33.9961 76.8952 33.4129 78.5848 33.4129H79.5235C79.8952 33.4129 80.081 33.5988 80.081 33.9705V34.326C80.081 34.6977 79.8952 34.8835 79.5235 34.8835H78.4341C77.4195 34.8835 76.6174 35.1789 76.0276 35.7696C75.4369 36.3603 75.1416 37.1625 75.1416 38.176V46.0269C75.1416 46.1956 75.0823 46.3307 74.9638 46.4322C74.8623 46.5336 74.7272 46.5844 74.5585 46.5844H74.1531C73.7814 46.5844 73.5956 46.3985 73.5956 46.0269V33.9946C73.5956 33.8259 73.6463 33.6908 73.7478 33.5893C73.8492 33.4708 73.9843 33.4115 74.1531 33.4115H74.5585C74.7272 33.4115 74.8623 33.4708 74.9638 33.5893C75.0823 33.6908 75.1416 33.8259 75.1416 33.9946V35.1609L75.1402 35.1623ZM90.7849 46.5915C90.4132 46.5915 90.2274 46.4056 90.2274 46.034V44.8435C90.0757 45.0806 89.8732 45.3176 89.6201 45.5547C89.383 45.7917 89.0877 46.0027 88.734 46.1876C88.3794 46.3734 87.9527 46.5251 87.454 46.6427C86.9638 46.7773 86.3901 46.8446 85.7331 46.8446C85.1262 46.8446 84.5431 46.7517 83.9837 46.5659C83.4432 46.3639 82.962 46.0937 82.5401 45.7552C82.1352 45.4177 81.8062 45.0208 81.5531 44.5648C81.316 44.1097 81.1975 43.6119 81.1975 43.0714C81.1975 42.4978 81.316 41.9825 81.5531 41.5254C81.8062 41.0703 82.1523 40.6735 82.5913 40.335C83.0303 39.9804 83.5537 39.6936 84.1615 39.4746C84.7873 39.2375 85.4714 39.0687 86.2138 38.9682L90.216 38.4107V37.5247C90.216 36.6125 89.9372 35.9033 89.3797 35.397C88.8393 34.8907 87.9698 34.6375 86.7713 34.6375C85.826 34.6375 85.0912 34.8233 84.5668 35.195C84.0605 35.5496 83.741 35.9384 83.6082 36.3613C83.5419 36.5632 83.4575 36.7069 83.3551 36.7922C83.2697 36.8586 83.1512 36.8918 82.9995 36.8918H82.6439C82.4922 36.8918 82.3571 36.841 82.2386 36.7396C82.1371 36.6211 82.0864 36.4859 82.0864 36.3342C82.0864 36.0972 82.1708 35.8018 82.3396 35.4482C82.5084 35.0936 82.7786 34.7475 83.1503 34.4099C83.5295 34.0724 84.0193 33.7856 84.6194 33.5495C85.2102 33.2963 85.9289 33.1697 86.7756 33.1697C87.7711 33.1697 88.5904 33.3049 89.2332 33.5751C89.8912 33.8453 90.4066 34.1999 90.7792 34.6389C91.1509 35.0608 91.404 35.5335 91.5387 36.0569C91.6904 36.5803 91.7662 37.0956 91.7662 37.6029V46.0368C91.7662 46.4085 91.5804 46.5943 91.2087 46.5943H90.7778L90.7849 46.5915ZM85.9976 45.3755C86.5712 45.3755 87.1117 45.2825 87.619 45.0967C88.1423 44.8947 88.5984 44.5994 88.9872 44.2106C89.3664 43.8314 89.6698 43.3416 89.8974 42.7415C90.1174 42.1508 90.2274 41.4586 90.2274 40.665V39.8045L86.9605 40.2596C84.1577 40.6389 82.7563 41.534 82.7563 42.9448C82.7563 43.3668 82.8492 43.7299 83.0351 44.0343C83.237 44.3377 83.4902 44.5909 83.7945 44.7938C84.098 44.9957 84.444 45.1474 84.8328 45.2489C85.212 45.3342 85.6008 45.3769 85.999 45.3769L85.9976 45.3755ZM101.58 46.8446C100.516 46.8446 99.6464 46.655 98.9713 46.2757C98.2962 45.8965 97.7473 45.4238 97.3244 44.8578V50.8596C97.3244 51.2313 97.1385 51.4172 96.7669 51.4172H96.3359C95.9642 51.4172 95.7784 51.2313 95.7784 50.8596V33.9705C95.7784 33.5988 95.9642 33.4129 96.3359 33.4129H96.7669C97.1385 33.4129 97.3244 33.5988 97.3244 33.9705V35.1609C97.7463 34.5872 98.2953 34.1146 98.9713 33.7429C99.6464 33.3636 100.516 33.174 101.58 33.174C102.559 33.174 103.386 33.3513 104.062 33.7059C104.754 34.0435 105.311 34.4995 105.734 35.0741C106.156 35.6316 106.459 36.2736 106.644 36.9998C106.846 37.7091 106.965 38.4354 107 39.1787C107.017 39.4319 107.026 39.7107 107.026 40.015C107.026 40.3184 107.017 40.5972 107 40.8513C106.966 41.5966 106.847 42.3314 106.644 43.0558C106.459 43.765 106.155 44.4069 105.734 44.9815C105.312 45.539 104.755 45.9951 104.062 46.3497C103.386 46.6873 102.559 46.856 101.58 46.856V46.8446ZM97.3244 39.0934C97.3073 39.3466 97.2988 39.6756 97.2988 40.0804C97.2988 40.4853 97.3073 40.8143 97.3244 41.0675C97.3414 41.5738 97.4258 42.0891 97.5775 42.6135C97.7463 43.1198 97.9995 43.5758 98.337 43.9817C98.6746 44.3865 99.1012 44.7241 99.617 44.9943C100.123 45.2475 100.731 45.374 101.44 45.374C102.186 45.374 102.802 45.2475 103.289 44.9943C103.796 44.7411 104.201 44.4036 104.505 43.9817C104.826 43.5427 105.053 43.0449 105.188 42.4883C105.34 41.9147 105.433 41.3235 105.467 40.7148C105.484 40.2407 105.484 39.768 105.467 39.2968C105.433 38.6899 105.34 38.1068 105.188 37.5474C105.053 36.9899 104.826 36.5002 104.505 36.0782C104.202 35.6392 103.797 35.2931 103.289 35.04C102.799 34.7698 102.183 34.6346 101.44 34.6346C100.714 34.6346 100.098 34.7698 99.5914 35.04C99.0851 35.3102 98.6584 35.6648 98.3114 36.1038C97.9909 36.5258 97.7458 36.9984 97.5761 37.5218C97.4244 38.0452 97.34 38.5686 97.323 39.092L97.3244 39.0934ZM112.02 35.1623C112.476 34.5716 113.025 34.0904 113.667 33.7187C114.306 33.347 115.176 33.1612 116.276 33.1612C117.137 33.1612 117.888 33.3048 118.53 33.5921C119.169 33.8794 119.701 34.2762 120.126 34.7826C120.565 35.2889 120.894 35.8886 121.113 36.5817C121.333 37.2739 121.443 38.0253 121.443 38.836V46.0297C121.443 46.4014 121.257 46.5872 120.885 46.5872H120.459C120.087 46.5872 119.901 46.4014 119.901 46.0297V38.9611C119.901 37.61 119.572 36.5547 118.914 35.7952C118.256 35.0177 117.294 34.629 116.027 34.629C114.811 34.629 113.84 35.0082 113.114 35.7668C112.388 36.5253 112.025 37.5906 112.025 38.9626V46.0311C112.025 46.4028 111.839 46.5886 111.467 46.5886H111.036C110.665 46.5886 110.479 46.4028 110.479 46.0311V29.1562C110.479 28.7845 110.665 28.5986 111.036 28.5986H111.467C111.839 28.5986 112.025 28.7845 112.025 29.1562V35.158L112.02 35.1623ZM131.775 28.6029C132.755 28.6029 133.65 28.7465 134.461 29.0338C135.271 29.3211 135.964 29.7601 136.537 30.3508C137.128 30.9245 137.584 31.6508 137.905 32.5297C138.243 33.3907 138.429 34.4123 138.463 35.5947C138.497 36.3532 138.514 37.0624 138.514 37.7224C138.514 38.3804 138.497 39.0896 138.463 39.85C138.378 42.265 137.761 44.0381 136.614 45.1692L138.235 47.4491C138.252 47.4832 138.269 47.5164 138.287 47.5487C138.304 47.5828 138.312 47.642 138.312 47.7264C138.312 47.8611 138.261 47.9796 138.16 48.082C138.059 48.1835 137.94 48.2342 137.804 48.2342H137.247C137.061 48.2342 136.901 48.1583 136.766 48.0066C136.632 47.872 136.522 47.7535 136.436 47.6511L135.318 46.1051C134.304 46.5953 133.121 46.8404 131.771 46.8404C129.661 46.8404 128.031 46.2748 126.883 45.1436C125.752 44.0125 125.152 42.2479 125.084 39.85C125.05 39.0915 125.033 38.3823 125.033 37.7224C125.033 37.0643 125.05 36.3551 125.084 35.5947C125.118 34.4123 125.295 33.3907 125.616 32.5297C125.953 31.6517 126.409 30.9254 126.984 30.3508C127.575 29.7601 128.267 29.3211 129.06 29.0338C129.871 28.7465 130.775 28.6029 131.771 28.6029H131.775ZM131.775 30.1247C131.066 30.1247 130.407 30.2347 129.799 30.4547C129.192 30.6566 128.66 30.9856 128.203 31.4417C127.748 31.8968 127.385 32.4799 127.113 33.1911C126.86 33.9003 126.717 34.7442 126.682 35.7227C126.665 36.1019 126.648 36.4565 126.631 36.7865C126.631 37.107 126.631 37.4199 126.631 37.7252C126.631 38.0286 126.631 38.3481 126.631 38.6838C126.648 39.0043 126.665 39.3504 126.682 39.722C126.717 40.7176 126.86 41.571 127.113 42.2821C127.384 42.9742 127.738 43.5479 128.177 44.003C128.632 44.4581 129.164 44.7957 129.773 45.0156C130.38 45.2176 131.045 45.3186 131.77 45.3186C132.496 45.3186 133.162 45.2176 133.767 45.0156C134.373 44.7957 134.897 44.4581 135.337 44.003C135.792 43.5479 136.147 42.9742 136.401 42.2821C136.671 41.5728 136.823 40.7195 136.856 39.722C136.873 39.3504 136.881 39.0043 136.881 38.6838C136.881 38.3462 136.881 38.0267 136.881 37.7252C136.881 37.4218 136.881 37.1089 136.881 36.7865C136.881 36.466 136.873 36.1114 136.856 35.7227C136.822 34.7432 136.67 33.8993 136.401 33.1911C136.147 32.4818 135.793 31.8987 135.337 31.4417C134.882 30.9866 134.35 30.6576 133.741 30.4547C133.134 30.2347 132.475 30.1247 131.764 30.1247H131.775ZM144.139 45.0668H152.877C153.257 45.0668 153.446 45.2565 153.446 45.6357V46.0155C153.446 46.3872 153.257 46.573 152.877 46.573H143.101C142.729 46.573 142.543 46.3872 142.543 46.0155V29.4122C142.543 29.0405 142.729 28.8546 143.101 28.8546H143.582C143.953 28.8546 144.139 29.0405 144.139 29.4122V45.0654V45.0668Z" fill="#7C8894" stroke="#7C8894" stroke-width="0.5"/>
<path d="M29.5 19.5L28 18L9.5 49.5L10.5 51.5L29.5 19.5Z" fill="#7C8894"/>
<path d="M8.2121 48.5784H46.2658V50.551H8.2121V48.5784Z" fill="#7C8894"/>
<path d="M27.9998 60.676L8.96442 49.6863L9.95146 47.9796L28.9854 58.9664L27.9998 60.676ZM44.5348 32.0319L25.5009 21.0436L26.4879 19.3369L45.5219 30.3266L44.5348 32.0319Z" fill="#7C8894"/>
<path d="M9.95573 32.0261L8.96869 30.3194L28.0183 19.3425L29.0053 21.0492L9.95573 32.0261Z" fill="#7C8894"/>
<path d="M44.1836 52.1964L25.1554 19.2429L26.8621 18.2559L45.8889 51.2093L44.1836 52.1964ZM9.72113 29.0109H11.6909V50.9903H9.72113V29.0109ZM42.7969 29.0109H44.7696V50.9903H42.7955L42.7969 29.0109Z" fill="#7C8894"/>
<path d="M27.6627 59.8411L26.8008 58.3478L43.3558 48.7903L44.2177 50.2836L27.6627 59.8411Z" fill="#7C8894"/>
<path d="M47.3836 51.6318C46.833 52.5843 45.9269 53.2793 44.8643 53.5644C43.8017 53.8494 42.6694 53.7012 41.7159 53.1522C40.7635 52.6016 40.0684 51.6955 39.7834 50.6329C39.4983 49.5703 39.6466 48.438 40.1956 47.4846C40.7462 46.5321 41.6523 45.8371 42.7149 45.552C43.7775 45.267 44.9098 45.4152 45.8632 45.9642C47.8601 47.102 48.537 49.662 47.385 51.6318H47.3836ZM14.2851 32.5168C13.7344 33.4693 12.8283 34.1643 11.7657 34.4494C10.7031 34.7344 9.57083 34.5862 8.61741 34.0372C7.66495 33.4866 6.96991 32.5805 6.68486 31.5179C6.39981 30.4553 6.54804 29.323 7.09702 28.3695C7.64767 27.4171 8.55375 26.722 9.61636 26.437C10.679 26.1519 11.8113 26.3002 12.7647 26.8492C14.7487 27.987 15.4243 30.547 14.2865 32.5168H14.2851ZM7.10982 51.6318C5.96918 49.6478 6.64617 47.1176 8.63163 45.9642C10.6157 44.8235 13.1458 45.5005 14.2993 47.486C15.4399 49.47 14.7629 52.0002 12.7775 53.1536C10.7806 54.2943 8.25047 53.6173 7.10982 51.6318ZM40.2098 32.5168C39.0691 30.5328 39.7461 28.0026 41.7316 26.8492C43.7156 25.7085 46.2458 26.3855 47.3992 28.371C48.5399 30.355 47.8629 32.8852 45.8774 34.0386C44.924 34.5876 43.7917 34.7358 42.7291 34.4508C41.6665 34.1657 40.7604 33.4707 40.2098 32.5182V32.5168ZM27.2432 63.2672C24.9505 63.2672 23.0973 61.4141 23.0973 59.1214C23.0973 56.8287 24.9548 54.9755 27.2432 54.9755C29.5316 54.9755 31.389 56.8287 31.389 59.1214C31.3871 60.2204 30.9497 61.2738 30.1726 62.0509C29.3955 62.828 28.3421 63.2654 27.2432 63.2672ZM27.2432 25.0344C24.9505 25.0344 23.0973 23.1812 23.0973 20.8885C23.0973 18.5959 24.9548 16.7427 27.2432 16.7427C29.5316 16.7427 31.389 18.5959 31.389 20.8885C31.3899 21.4332 31.2833 21.9728 31.0753 22.4762C30.8673 22.9796 30.562 23.437 30.1768 23.8222C29.7916 24.2073 29.3342 24.5127 28.8308 24.7207C28.3274 24.9287 27.7879 25.0353 27.2432 25.0344Z" fill="#7C8894"/>
</svg>
