<svg width="86" height="52" viewBox="0 0 86 52" fill="none" xmlns="http://www.w3.org/2000/svg">
<path d="M20.8205 14.2313H36.6636V15.4919H22.2728V24.9796H35.8055V26.2402H22.2728V36.6567H36.8287V37.9173H20.8205V14.2313ZM38.0829 14.2313H39.7663L47.2257 24.6478L54.8503 14.2313L65.2209 1L48.1829 25.7426L56.9627 37.9173H55.2133L47.2257 26.8373L39.2051 37.9173H37.4888L46.3346 25.7426L38.0829 14.2313ZM57.5898 15.4919V14.2313H75.6444V15.4919H67.3268V37.9173H65.8745V15.4919H57.5898ZM1 14.2313H2.81536L27.8482 51.7309L17.5033 37.9173L2.5183 16.0227L2.45229 37.9173H1V14.2313ZM75.4981 36.2763C75.2014 36.2763 74.9789 36.0461 74.9789 35.7487C74.9789 35.4513 75.2014 35.2211 75.4981 35.2211C75.7984 35.2211 76.0174 35.4513 76.0174 35.7487C76.0174 36.0461 75.7984 36.2763 75.4981 36.2763ZM76.9252 34.8883H77.7023C77.7129 35.3096 78.0202 35.5929 78.4723 35.5929C78.9774 35.5929 79.2635 35.2884 79.2635 34.7183V31.1068H80.0548V34.7219C80.0548 35.7487 79.4613 36.34 78.4794 36.34C77.5574 36.34 76.9252 35.7664 76.9252 34.8883ZM81.0897 34.8423H81.8739C81.941 35.3273 82.4144 35.6354 83.0961 35.6354C83.7319 35.6354 84.1982 35.3061 84.1982 34.8529C84.1982 34.4634 83.9015 34.2297 83.2268 34.0704L82.5698 33.9111C81.6478 33.6951 81.2275 33.2489 81.2275 32.4983C81.2275 31.5883 81.9693 30.9829 83.082 30.9829C84.1169 30.9829 84.8728 31.5883 84.9188 32.4487H84.1487C84.0745 31.9778 83.6648 31.6839 83.0714 31.6839C82.4461 31.6839 82.0293 31.9849 82.0293 32.4452C82.0293 32.8099 82.2978 33.0188 82.9619 33.1746L83.5235 33.3127C84.5691 33.557 85 33.9819 85 34.7502C85 35.7274 84.2441 36.34 83.036 36.34C81.9057 36.34 81.1463 35.7558 81.0897 34.8423Z" fill="#7C8894" stroke="#7C8894" stroke-width="0.5"/>
</svg>
