<svg width="122" height="84" viewBox="0 0 122 84" fill="none" xmlns="http://www.w3.org/2000/svg">
<path d="M0 42.1567C0 45.5551 3.31845 48.7276 8.55025 50.5158C7.50551 55.7754 8.36301 60.0146 11.2272 61.6664C14.1712 63.3641 18.5572 62.1889 22.72 58.5501C26.7778 62.042 30.879 63.4163 33.7405 61.7598C36.6817 60.0571 37.5763 55.5304 36.5027 50.1066C41.9519 48.305 45 45.5998 45 42.1567C45 38.8371 41.6754 35.9652 36.5142 34.1885C37.67 28.5405 36.6906 24.4042 33.7079 22.6842C30.8322 21.0259 26.6835 22.4712 22.566 26.0546C18.2824 22.2512 14.1746 21.0899 11.1948 22.815C8.32192 24.4779 7.50213 28.7942 8.55025 34.1511C3.4951 35.9136 0 38.8504 0 42.1567Z" fill="white"/>
<path d="M35.421 35.9528C35.0065 35.8101 34.5769 35.6751 34.1346 35.5474C34.2073 35.2507 34.274 34.9578 34.3333 34.6699C35.3072 29.9428 34.6704 26.1345 32.4962 24.8807C30.4113 23.6784 27.0017 24.932 23.5582 27.9288C23.2271 28.217 22.895 28.5221 22.5631 28.8418C22.3419 28.6303 22.1211 28.4258 21.9009 28.2303C18.292 25.0259 14.6746 23.6755 12.5025 24.933C10.4196 26.1387 9.80283 29.7188 10.6794 34.1988C10.7641 34.6315 10.863 35.0734 10.9749 35.5227C10.463 35.668 9.96872 35.823 9.49581 35.9878C5.26474 37.4629 2.56259 39.7748 2.56259 42.1729C2.56259 44.6496 5.46335 47.1338 9.87034 48.6401C10.2181 48.759 10.579 48.8713 10.9509 48.9781C10.8302 49.464 10.7252 49.9402 10.637 50.4046C9.80119 54.8068 10.4539 58.3023 12.5312 59.5005C14.6769 60.7378 18.2779 59.466 21.7844 56.4009C22.0615 56.1586 22.3397 55.9017 22.6183 55.6323C22.9795 55.9801 23.34 56.3093 23.6987 56.618C27.0951 59.5407 30.4497 60.721 32.5251 59.5195C34.6686 58.2786 35.3652 54.5236 34.4608 49.955C34.3917 49.606 34.3113 49.2496 34.2211 48.8868C34.474 48.812 34.7222 48.7348 34.9643 48.6546C39.5458 47.1366 42.5266 44.6827 42.5266 42.1729C42.5266 39.7662 39.7373 37.4387 35.421 35.9528Z" fill="#7C8894"/>
<path d="M34.4274 47.0341C34.2088 47.1064 33.9846 47.1764 33.7561 47.2441C33.2504 45.643 32.5677 43.9403 31.7324 42.1812C32.5295 40.464 33.1858 38.7832 33.6774 37.1924C34.0862 37.3106 34.483 37.4354 34.8653 37.5671C38.5635 38.8402 40.8194 40.7225 40.8194 42.1729C40.8194 43.7178 38.3831 45.7233 34.4274 47.0341ZM32.786 50.2865C33.1859 52.3067 33.243 54.1332 32.9781 55.561C32.7401 56.844 32.2614 57.6994 31.6696 58.042C30.4101 58.771 27.7168 57.8234 24.8121 55.3239C24.4791 55.0373 24.1437 54.7314 23.8073 54.4076C24.9333 53.176 26.0588 51.7442 27.1572 50.1542C29.0891 49.9827 30.9144 49.7024 32.5697 49.3198C32.6512 49.6487 32.7236 49.9712 32.786 50.2865ZM16.1872 57.916C14.9567 58.3506 13.9767 58.363 13.3843 58.0215C12.1237 57.2944 11.5996 54.4878 12.3145 50.723C12.3964 50.2919 12.4938 49.849 12.6061 49.3963C14.2432 49.7583 16.0551 50.0188 17.9917 50.1758C19.0975 51.7317 20.2555 53.1619 21.4224 54.4142C21.1674 54.6603 20.9135 54.8946 20.6609 55.1154C19.1104 56.4708 17.5566 57.4324 16.1872 57.916ZM10.4225 47.0246C8.47381 46.3586 6.86451 45.4929 5.76141 44.5483C4.77021 43.6995 4.26978 42.8567 4.26978 42.1729C4.26978 40.7177 6.43933 38.8615 10.0578 37.6C10.4968 37.4469 10.9564 37.3026 11.4334 37.1671C11.9335 38.7938 12.5895 40.4946 13.3812 42.2144C12.5792 43.9598 11.9139 45.6877 11.4089 47.3335C11.0689 47.2358 10.7395 47.1329 10.4225 47.0246ZM12.3549 33.871C11.6038 30.0326 12.1026 27.1371 13.3578 26.4106C14.6948 25.6365 17.6513 26.7401 20.7673 29.5069C20.9665 29.6838 21.1664 29.8689 21.367 30.0604C20.2058 31.3072 19.0585 32.7266 17.9625 34.2734C16.083 34.4476 14.2838 34.7274 12.6296 35.1022C12.5256 34.6838 12.4335 34.2728 12.3549 33.871ZM29.5936 38.1276C29.1981 37.4446 28.7922 36.7777 28.3783 36.129C29.6534 36.2902 30.8751 36.5042 32.0223 36.766C31.6779 37.8699 31.2486 39.0241 30.7433 40.2073C30.3808 39.5191 29.9973 38.8251 29.5936 38.1276ZM22.5637 31.2805C23.3511 32.1336 24.1398 33.0861 24.9154 34.1196C24.1338 34.0827 23.3425 34.0635 22.5446 34.0635C21.7543 34.0635 20.9688 34.0822 20.192 34.1185C20.9685 33.0947 21.7639 32.1434 22.5637 31.2805ZM15.4888 38.1395C15.0937 38.8244 14.7174 39.5146 14.3606 40.206C13.8635 39.0269 13.4381 37.8675 13.0907 36.748C14.2309 36.4928 15.4469 36.2842 16.7139 36.126C16.2942 36.7807 15.8848 37.4525 15.4888 38.1393V38.1395ZM16.7503 48.3416C15.4413 48.1955 14.2071 47.9976 13.0672 47.7495C13.4201 46.61 13.8548 45.4258 14.3625 44.2213C14.7203 44.9123 15.0981 45.6027 15.4955 46.2892H15.4956C15.9004 46.9885 16.3198 47.6735 16.7503 48.3416ZM22.6109 53.1857C21.8017 52.3126 20.9946 51.3469 20.2064 50.3081C20.9716 50.3381 21.7517 50.3535 22.5446 50.3535C23.3592 50.3535 24.1644 50.3351 24.957 50.2998C24.1788 51.3573 23.393 52.3246 22.6109 53.1857ZM30.7595 44.1599C31.2937 45.3774 31.744 46.5554 32.1015 47.6755C30.9428 47.9399 29.6917 48.1528 28.3736 48.311C28.7885 47.6535 29.198 46.9752 29.6004 46.2774C30.0075 45.5715 30.3941 44.8645 30.7595 44.1599ZM28.1216 45.4245C27.4969 46.5077 26.8555 47.5417 26.2044 48.5178C25.0185 48.6026 23.7933 48.6462 22.5446 48.6462C21.301 48.6462 20.0912 48.6076 18.9263 48.532C18.249 47.5431 17.5937 46.506 16.9729 45.4338H16.9731C16.354 44.3645 15.7842 43.2862 15.2679 42.2139C15.784 41.1391 16.3523 40.0595 16.9679 38.9922L16.9677 38.9924C17.5849 37.9221 18.2344 36.8901 18.9055 35.9074C20.0941 35.8176 21.3128 35.7707 22.5445 35.7707H22.5446C23.7819 35.7707 25.0022 35.8179 26.1904 35.9086C26.8512 36.8841 27.4964 37.9127 28.1159 38.9831C28.7426 40.0655 29.3182 41.1379 29.8388 42.1896C29.3198 43.2594 28.7454 44.3426 28.1216 45.4245ZM31.6434 26.3598C32.9817 27.1315 33.5021 30.244 32.6613 34.3254C32.6076 34.5858 32.5473 34.8511 32.4817 35.1199C30.8236 34.7373 29.0232 34.4526 27.1382 34.2758C26.0401 32.712 24.9021 31.2904 23.7599 30.0596C24.067 29.7642 24.3736 29.4825 24.679 29.2166C27.6294 26.649 30.387 25.6353 31.6434 26.3598Z" fill="white"/>
<path d="M22.5446 38.6042C24.5155 38.6042 26.1133 40.202 26.1133 42.1729C26.1133 44.1438 24.5155 45.7416 22.5446 45.7416C20.5738 45.7416 18.976 44.1438 18.976 42.1729C18.976 40.202 20.5738 38.6042 22.5446 38.6042Z" fill="#7C8894"/>
<path d="M70.8125 54H67.8828L64.3672 48.1113C64.0449 47.5645 63.7324 47.1006 63.4297 46.7197C63.127 46.3291 62.8145 46.0117 62.4922 45.7676C62.1797 45.5234 61.8379 45.3477 61.4668 45.2402C61.1055 45.123 60.6953 45.0645 60.2363 45.0645H58.2148V54H55.7539V32.9941H62.0234C62.9414 32.9941 63.7861 33.1113 64.5576 33.3457C65.3389 33.5703 66.0127 33.917 66.5791 34.3857C67.1553 34.8545 67.6045 35.4404 67.9268 36.1436C68.249 36.8369 68.4102 37.6523 68.4102 38.5898C68.4102 39.3223 68.2979 39.9961 68.0732 40.6113C67.8584 41.2168 67.5459 41.7588 67.1357 42.2373C66.7354 42.7158 66.2471 43.126 65.6709 43.4678C65.1045 43.7998 64.4648 44.0586 63.752 44.2441V44.3027C64.1035 44.459 64.4062 44.6396 64.6602 44.8447C64.9238 45.04 65.1729 45.2744 65.4072 45.5479C65.6416 45.8213 65.8711 46.1338 66.0957 46.4854C66.3301 46.8271 66.5889 47.2275 66.8721 47.6865L70.8125 54ZM58.2148 35.2207V42.8379H61.5547C62.1699 42.8379 62.7363 42.7451 63.2539 42.5596C63.7812 42.374 64.2354 42.1104 64.6162 41.7686C64.9971 41.417 65.2949 40.9922 65.5098 40.4941C65.7246 39.9863 65.832 39.4199 65.832 38.7949C65.832 37.6719 65.4658 36.7979 64.7334 36.1729C64.0107 35.5381 62.9609 35.2207 61.584 35.2207H58.2148ZM83.5674 47.1006H72.9766C73.0156 48.7705 73.4648 50.0596 74.3242 50.9678C75.1836 51.876 76.3652 52.3301 77.8691 52.3301C79.5586 52.3301 81.1113 51.7734 82.5273 50.6602V52.916C81.209 53.873 79.4658 54.3516 77.2979 54.3516C75.1787 54.3516 73.5137 53.6729 72.3027 52.3154C71.0918 50.9482 70.4863 49.0293 70.4863 46.5586C70.4863 44.2246 71.1455 42.3252 72.4639 40.8604C73.792 39.3857 75.4375 38.6484 77.4004 38.6484C79.3633 38.6484 80.8818 39.2832 81.9561 40.5527C83.0303 41.8223 83.5674 43.585 83.5674 45.8408V47.1006ZM81.1064 45.0645C81.0967 43.6777 80.7598 42.5986 80.0957 41.8271C79.4414 41.0557 78.5283 40.6699 77.3564 40.6699C76.2236 40.6699 75.2617 41.0752 74.4707 41.8857C73.6797 42.6963 73.1914 43.7559 73.0059 45.0645H81.1064ZM96.9521 54H94.5498V51.6562H94.4912C93.4463 53.4531 91.9082 54.3516 89.877 54.3516C88.3828 54.3516 87.2109 53.9561 86.3613 53.165C85.5215 52.374 85.1016 51.3242 85.1016 50.0156C85.1016 47.2129 86.752 45.582 90.0527 45.123L94.5498 44.4932C94.5498 41.9443 93.5195 40.6699 91.459 40.6699C89.6523 40.6699 88.0215 41.2852 86.5664 42.5156V40.0547C88.041 39.1172 89.7402 38.6484 91.6641 38.6484C95.1895 38.6484 96.9521 40.5137 96.9521 44.2441V54ZM94.5498 46.4121L90.9316 46.9102C89.8184 47.0664 88.9785 47.3447 88.4121 47.7451C87.8457 48.1357 87.5625 48.834 87.5625 49.8398C87.5625 50.5723 87.8213 51.1729 88.3389 51.6416C88.8662 52.1006 89.5645 52.3301 90.4336 52.3301C91.625 52.3301 92.6064 51.915 93.3779 51.085C94.1592 50.2451 94.5498 49.1855 94.5498 47.9062V46.4121ZM110.703 53.3115C109.551 54.0049 108.184 54.3516 106.602 54.3516C104.463 54.3516 102.734 53.6582 101.416 52.2715C100.107 50.875 99.4531 49.0684 99.4531 46.8516C99.4531 44.3809 100.161 42.3984 101.577 40.9043C102.993 39.4004 104.883 38.6484 107.246 38.6484C108.564 38.6484 109.727 38.8926 110.732 39.3809V41.8418C109.619 41.0605 108.428 40.6699 107.158 40.6699C105.625 40.6699 104.365 41.2217 103.379 42.3252C102.402 43.4189 101.914 44.8594 101.914 46.6465C101.914 48.4043 102.373 49.791 103.291 50.8066C104.219 51.8223 105.459 52.3301 107.012 52.3301C108.32 52.3301 109.551 51.8955 110.703 51.0264V53.3115ZM120.294 53.8535C119.728 54.166 118.98 54.3223 118.053 54.3223C115.426 54.3223 114.112 52.8574 114.112 49.9277V41.0508H111.534V39H114.112V35.3379L116.515 34.5615V39H120.294V41.0508H116.515V49.5029C116.515 50.5088 116.686 51.2266 117.027 51.6562C117.369 52.0859 117.936 52.3008 118.727 52.3008C119.332 52.3008 119.854 52.1348 120.294 51.8027V53.8535Z" fill="#7C8894"/>
</svg>
