<svg width="167" height="59" viewBox="0 0 167 59" fill="none" xmlns="http://www.w3.org/2000/svg">
<path d="M21.5759 17.0852C26.2326 17.0852 30.0075 13.9986 30.0075 10.191C30.0075 6.38349 26.2326 3.29688 21.5759 3.29688C16.9193 3.29688 13.1443 6.38349 13.1443 10.191C13.1443 13.9986 16.9193 17.0852 21.5759 17.0852Z" stroke="black" stroke-width="5" stroke-miterlimit="10"/>
<path d="M38.4757 58.9999H3.38938C1.51685 58.9999 0 57.4955 0 55.6384V13.5524C0 11.6953 1.51685 10.1909 3.38938 10.1909H38.4757C40.3482 10.1909 41.8651 11.6953 41.8651 13.5524V55.6384C41.8651 57.4955 40.3482 58.9999 38.4757 58.9999Z" fill="#38A895"/>
<path d="M34.281 41.1706C34.281 47.9143 29.2492 51.2862 19.1857 51.2862C15.5139 51.2862 12.3075 50.8919 9.56152 50.1034L10.7175 43.4583C13.5524 44.4698 16.3717 44.973 19.1857 44.973C21.9056 44.973 23.7938 44.75 24.8451 44.2987C25.9017 43.8473 26.4247 43.0952 26.4247 42.0369C26.4247 40.3977 24.5208 38.8311 20.713 37.3474C17.3811 36.0454 14.9542 34.7641 13.4373 33.5035C11.3504 31.7501 10.3095 29.6025 10.3095 27.0607C10.3095 24.0727 11.434 21.6657 13.6779 19.8449C15.9218 18.0241 19.1857 17.1111 23.4695 17.1111C27.4813 17.1111 30.6301 17.4586 32.921 18.1538L31.7651 24.83C29.2021 23.8392 26.4404 23.3464 23.4695 23.3464C19.8447 23.3464 18.0297 24.2698 18.0297 26.1114C18.0297 27.0555 18.4168 27.8128 19.1857 28.3887C19.9546 28.9645 21.5342 29.6855 23.9141 30.5622C27.1988 31.7553 29.5944 32.9796 31.0903 34.2401C33.2192 36.0558 34.281 38.359 34.281 41.1706Z" fill="white"/>
<path d="M69.1475 42.4416H63.5717C63.7025 38.1308 63.7705 34.3906 63.7705 31.2263H53.8377C53.8377 34.069 53.9005 37.804 54.0365 42.4416H48.4608C48.6334 38.1412 48.717 33.7059 48.717 29.1357C48.717 24.5085 48.6334 20.4674 48.4608 17.0022H54.0365C53.8796 20.6646 53.8011 24.052 53.8011 27.1645H63.8123C63.8123 24.4151 63.7339 21.0277 63.577 17.0022H69.1527C68.9696 20.3118 68.8755 24.358 68.8755 29.1357C68.8755 34.1261 68.9644 38.5614 69.1475 42.4416Z" fill="#2D2D2D"/>
<path d="M98.5901 29.2499C98.5901 33.2494 97.3557 36.5642 94.8869 39.1943C92.4181 41.8243 89.3635 43.142 85.723 43.142C82.2552 43.142 79.3523 41.9333 77.0142 39.5159C74.6762 37.0986 73.5045 34.0276 73.5045 30.303C73.5045 26.3034 74.7389 22.9886 77.2078 20.3586C79.6766 17.7285 82.7312 16.4109 86.3716 16.4109C89.8395 16.4109 92.7424 17.6144 95.0804 20.0266C97.4185 22.4387 98.5901 25.5149 98.5901 29.2499ZM93.1504 29.8205C93.1504 27.0971 92.4495 24.8872 91.0425 23.1961C89.6355 21.505 87.9042 20.6542 85.8381 20.6542C83.9185 20.6542 82.2918 21.505 80.9528 23.2117C79.6138 24.9184 78.9443 27.0763 78.9443 29.6805C78.9443 32.3883 79.6504 34.593 81.0626 36.2945C82.4749 37.996 84.2062 38.8467 86.2565 38.8467C88.1761 38.8467 89.8028 37.9908 91.1418 36.2789C92.4809 34.5671 93.1504 32.4143 93.1504 29.8205Z" fill="#2D2D2D"/>
<path d="M121.662 23.663C121.662 26.7755 120.496 29.0788 118.163 30.5624C115.83 32.046 112.969 32.7878 109.579 32.7878C108.962 32.7878 108.523 32.7774 108.261 32.7463C108.261 35.1948 108.335 38.4266 108.476 42.4417H102.937C103.109 38.6756 103.193 34.2403 103.193 29.1358C103.193 24.4463 103.109 20.4001 102.937 17.0023H106.363C106.849 17.0023 107.78 16.9816 109.161 16.9452C110.542 16.9089 111.734 16.8882 112.749 16.8882C115.244 16.8882 117.352 17.4484 119.073 18.5689C120.804 19.6842 121.662 21.3857 121.662 23.663ZM116.578 24.7368C116.578 21.9512 114.711 20.5557 110.981 20.5557C110.05 20.5557 109.062 20.6543 108.026 20.8462C108.172 23.3103 108.24 26.096 108.24 29.2084C108.57 29.2344 108.952 29.2499 109.381 29.2499C114.182 29.2499 116.578 27.7456 116.578 24.7368Z" fill="#2D2D2D"/>
<path d="M144.085 23.663C144.085 26.7755 142.919 29.0788 140.586 30.5624C138.253 32.046 135.392 32.7878 132.003 32.7878C131.385 32.7878 130.946 32.7774 130.685 32.7463C130.685 35.1948 130.758 38.4266 130.899 42.4417H125.36C125.532 38.6756 125.616 34.2403 125.616 29.1358C125.616 24.4463 125.532 20.4001 125.36 17.0023H128.786C129.272 17.0023 130.203 16.9816 131.584 16.9452C132.965 16.9089 134.158 16.8882 135.172 16.8882C137.667 16.8882 139.775 17.4484 141.496 18.5689C143.227 19.6842 144.085 21.3857 144.085 23.663ZM139.001 24.7368C139.001 21.9512 137.134 20.5557 133.404 20.5557C132.473 20.5557 131.485 20.6543 130.449 20.8462C130.596 23.3103 130.664 26.096 130.664 29.2084C130.993 29.2344 131.375 29.2499 131.804 29.2499C136.605 29.2499 139.001 27.7456 139.001 24.7368Z" fill="#2D2D2D"/>
<path d="M167 16.9971C167 17.5314 166.252 18.9683 164.756 21.3182C162.455 24.9028 161.058 27.1282 160.561 27.9997C159.065 30.6453 158.317 32.6062 158.317 33.8823C158.317 36.751 158.396 39.6041 158.553 42.4416H152.956C153.102 39.5885 153.17 36.7147 153.17 33.8252C153.17 32.4973 152.48 30.4845 151.099 27.787C150.456 26.5368 149.169 24.301 147.239 21.0848C145.858 18.7764 145.168 17.4173 145.168 17.0023H151.355C151.355 17.4691 152.182 19.4456 153.829 22.9315C155.477 26.4175 156.303 28.6689 156.303 29.6856H156.617C156.617 28.7467 157.423 26.6095 159.034 23.2739C160.645 19.9384 161.445 17.8478 161.445 17.0023H167V16.9971Z" fill="#2D2D2D"/>
<path d="M50.239 48.7185L51.51 52.5987L52.8856 48.7185H54.12V56.479H53.1524V53.382L53.2309 50.1399L51.7872 54.3158H51.2171L49.8886 50.2488L49.967 53.3769V56.4738H49.0098V48.7185H50.239Z" fill="#2D2D2D"/>
<path d="M71.2604 54.4714H68.6503L68.0227 56.479H67.0289L69.5552 48.7185H70.3869L72.8714 56.479H71.8828L71.2604 54.4714ZM68.9171 53.6103H70.9988L69.9632 50.2436L68.9171 53.6103Z" fill="#2D2D2D"/>
<path d="M90.8016 56.479H89.7921L86.7584 50.6794L86.7427 56.479H85.7384V48.7185H86.7479L89.7816 54.5077L89.7973 48.7185H90.8016V56.479Z" fill="#2D2D2D"/>
<path d="M108.015 54.4714H105.405L104.778 56.479H103.784L106.31 48.7185H107.142L109.626 56.479H108.638L108.015 54.4714ZM105.672 53.6103H107.748L106.718 50.2436L105.672 53.6103Z" fill="#2D2D2D"/>
<path d="M127.719 55.4622C127.389 55.8461 127.013 56.1314 126.584 56.313C126.155 56.4997 125.689 56.5879 125.182 56.5827C124.858 56.5775 124.565 56.5308 124.293 56.4375C124.021 56.3441 123.78 56.2144 123.566 56.0484C123.351 55.8824 123.163 55.6905 123.001 55.4674C122.839 55.2443 122.703 55.0005 122.593 54.7411C122.483 54.4818 122.399 54.2068 122.347 53.9215C122.289 53.6362 122.263 53.3457 122.258 53.0552V52.1526C122.263 51.8673 122.289 51.5768 122.336 51.2915C122.384 51.0062 122.462 50.7312 122.561 50.4667C122.661 50.2021 122.786 49.9583 122.938 49.7352C123.09 49.5122 123.267 49.3151 123.477 49.1491C123.686 48.9831 123.921 48.8534 124.188 48.76C124.455 48.6666 124.753 48.6147 125.082 48.6147C125.449 48.6147 125.783 48.6718 126.092 48.7807C126.401 48.8897 126.667 49.0505 126.897 49.258C127.128 49.4655 127.311 49.7145 127.452 50.0102C127.593 50.3059 127.677 50.6327 127.708 50.9958H126.725C126.683 50.7727 126.625 50.5652 126.542 50.3733C126.458 50.1814 126.348 50.0205 126.217 49.8857C126.082 49.7508 125.925 49.6471 125.736 49.5692C125.548 49.4914 125.334 49.4551 125.088 49.4551C124.852 49.4551 124.643 49.4966 124.46 49.5744C124.277 49.6522 124.12 49.7612 123.984 49.8961C123.848 50.0309 123.733 50.1865 123.644 50.3681C123.555 50.5497 123.482 50.7364 123.424 50.9335C123.367 51.1307 123.325 51.333 123.299 51.5405C123.273 51.748 123.262 51.9451 123.262 52.137V53.05C123.267 53.2472 123.283 53.4495 123.315 53.657C123.346 53.8645 123.393 54.0668 123.456 54.2691C123.519 54.4662 123.602 54.6582 123.702 54.8345C123.801 55.0109 123.921 55.1665 124.063 55.3014C124.204 55.4363 124.366 55.5452 124.554 55.623C124.742 55.7008 124.952 55.7423 125.187 55.7475C125.323 55.7527 125.464 55.7475 125.616 55.732C125.768 55.7164 125.909 55.6905 126.05 55.649C126.191 55.6075 126.322 55.5504 126.442 55.4778C126.563 55.4051 126.667 55.3118 126.746 55.1925L126.756 53.4495H125.166V52.6195H127.703L127.719 55.4622Z" fill="#2D2D2D"/>
<path d="M145.34 52.8944H142.071V55.6438H145.879V56.479H141.077V48.7185H145.832V49.5589H142.071V52.0541H145.34V52.8944Z" fill="#2D2D2D"/>
<path d="M162.005 53.3146H160.441V56.479H159.452V48.7185H161.749C162.115 48.7237 162.46 48.7756 162.779 48.8741C163.103 48.9727 163.386 49.1128 163.626 49.3047C163.867 49.4966 164.06 49.7353 164.196 50.0258C164.332 50.3162 164.406 50.6534 164.406 51.0477C164.406 51.3019 164.369 51.5301 164.296 51.7428C164.223 51.9503 164.123 52.1422 163.992 52.3134C163.862 52.4846 163.71 52.635 163.532 52.7647C163.354 52.8944 163.156 53.0085 162.941 53.1019L164.599 56.4167L164.594 56.479H163.548L162.005 53.3146ZM160.441 52.5054H161.775C161.994 52.5002 162.209 52.4691 162.402 52.4016C162.601 52.3342 162.774 52.2408 162.92 52.1163C163.067 51.9918 163.187 51.8414 163.271 51.6598C163.354 51.4782 163.401 51.2707 163.401 51.0373C163.401 50.7883 163.36 50.5704 163.276 50.3837C163.192 50.1969 163.077 50.0413 162.931 49.9168C162.784 49.7923 162.612 49.6938 162.408 49.6315C162.204 49.5693 161.984 49.5329 161.743 49.5278H160.436V52.5054H160.441Z" fill="#2D2D2D"/>
</svg>
